<svg width="479" height="168" viewBox="0 0 479 168" fill="none" xmlns="http://www.w3.org/2000/svg">
<path d="M31.8535 29.3579L50.1491 51.7579L84.1267 6.95793" stroke="#DADFF1" stroke-width="13.44" stroke-linecap="round" stroke-linejoin="round"/>
<path d="M31.8535 58.4781L50.1491 80.8781L84.1267 36.0781" stroke="#DADFF1" stroke-width="13.44" stroke-linecap="round" stroke-linejoin="round"/>
<path d="M102.885 145.838H52.507C17.876 145.838 0.560547 128.904 0.560547 95.035V74.2702H20.7511V88.7854C20.7511 100.209 22.9727 108.811 27.4159 114.59C31.9898 120.369 39.9615 123.259 51.3309 123.259H82.4988V85.5598C82.4988 73.867 85.5698 64.9294 91.7119 58.747C97.9847 52.5646 106.414 49.4734 116.999 49.4734H147.187V123.259H158.556V145.838H126.8V72.4558H116.019C111.184 72.4558 107.786 73.867 105.826 76.6894C103.865 79.5118 102.885 83.6782 102.885 89.1886V145.838Z" fill="white"/>
<path d="M147.629 134.549C147.629 131.323 148.675 128.635 150.766 126.485C152.726 124.334 155.34 123.259 158.607 123.259H171.74C177.36 123.259 181.15 123.461 183.11 123.864C183.11 123.729 183.11 123.528 183.11 123.259C183.241 122.99 183.306 122.789 183.306 122.654C179.255 119.697 175.988 115.397 173.505 109.752C171.152 104.107 169.976 98.2606 169.976 92.2126C169.976 79.579 173.635 69.2974 180.954 61.3678C188.272 53.4382 198.269 49.4734 210.945 49.4734C224.144 49.4734 234.403 53.5726 241.721 61.771C249.17 69.835 252.895 80.6542 252.895 94.2286C252.895 99.2014 252.045 104.309 250.346 109.55C248.778 114.657 246.687 118.824 244.074 122.049C244.074 122.318 244.204 122.721 244.466 123.259H264.264V145.838H158.607C155.47 145.838 152.857 144.83 150.766 142.814C148.675 140.664 147.629 137.909 147.629 134.549ZM211.337 71.6494C204.803 71.6494 199.772 73.7326 196.244 77.899C192.715 81.931 190.951 86.9038 190.951 92.8174C190.951 100.209 193.434 106.593 198.4 111.969C203.496 117.345 210.423 120.907 219.178 122.654C227.803 116.875 232.116 107.937 232.116 95.8414C232.116 88.5838 230.221 82.7374 226.431 78.3022C222.772 73.867 217.741 71.6494 211.337 71.6494ZM232.116 33.9502H214.278V15.6046H232.116V33.9502ZM208.201 33.9502H190.559V15.6046H208.201V33.9502Z" fill="white"/>
<path d="M253.103 134.75C253.103 131.928 254.148 129.307 256.239 126.888C258.33 124.469 261.009 123.259 264.276 123.259C269.112 123.259 272.64 121.848 274.862 119.025C277.083 116.069 278.194 111.297 278.194 104.712V67.2142H298.385V105.921C298.385 111.835 299.43 116.203 301.521 119.025C303.743 121.713 307.598 123.125 313.086 123.259V145.838C301.064 145.838 293.157 142.075 289.367 134.549C284.14 142.075 275.776 145.838 264.276 145.838C261.14 145.838 258.526 144.83 256.435 142.814C254.214 140.664 253.103 137.976 253.103 134.75ZM309.362 51.0862H291.524V32.7406H309.362V51.0862ZM285.447 51.0862H267.805V32.7406H285.447V51.0862Z" fill="white"/>
<path d="M301.918 134.75C301.918 131.928 302.963 129.307 305.054 126.888C307.145 124.469 309.819 123.259 313.086 123.259C317.922 123.259 321.455 121.848 323.676 119.025C325.898 116.069 327.009 111.297 327.009 104.712V67.2142H347.199V105.921C347.199 111.835 348.245 116.203 350.336 119.025C352.557 121.713 356.412 123.125 361.901 123.259V145.838C349.878 145.838 341.972 142.075 338.182 134.549C332.955 142.075 324.587 145.838 313.086 145.838C309.95 145.838 307.341 144.83 305.25 142.814C303.028 140.664 301.918 137.976 301.918 134.75ZM346.415 51.0862H328.577V32.7406H346.415V51.0862Z" fill="white"/>
<path d="M357.369 146.241C368.607 146.241 376.971 142.478 382.46 134.952C382.46 134.952 371.286 118.219 371.286 105.518C371.286 117.614 366.647 123.662 357.369 123.662C354.363 123.662 351.815 124.737 349.724 126.888C347.502 129.038 346.391 131.726 346.391 134.952C346.391 138.312 347.437 141.067 349.528 143.217C351.619 145.233 354.232 146.241 357.369 146.241Z" fill="white"/>
<path d="M451.919 110.234C463.865 103.337 463.865 86.0932 451.919 79.1958L396.343 47.109C384.396 40.2116 369.463 48.8333 369.463 62.6281V126.802C369.463 140.597 384.396 149.218 396.343 142.321L451.919 110.234Z" fill="#EA3636"/>
</svg>
