<svg width="31" height="11" viewBox="0 0 31 11" fill="none" xmlns="http://www.w3.org/2000/svg">
<path d="M2.73572 2.18002L3.87919 3.58002L6.00279 0.780017" stroke="#1C274C" stroke-width="0.84" stroke-linecap="round" stroke-linejoin="round"/>
<path d="M2.73572 4.00002L3.87919 5.40002L6.00279 2.60002" stroke="#1C274C" stroke-width="0.84" stroke-linecap="round" stroke-linejoin="round"/>
<path d="M7.1753 9.46003H4.02665C1.86222 9.46003 0.779999 8.40163 0.779999 6.28483V4.98703H2.04191V5.89423C2.04191 6.60823 2.18076 7.14583 2.45846 7.50703C2.74433 7.86823 3.24256 8.04883 3.95315 8.04883H5.90114V5.69263C5.90114 4.96183 6.09308 4.40323 6.47696 4.01683C6.86901 3.63043 7.39583 3.43723 8.05741 3.43723H9.94415V8.04883H10.6547V9.46003H8.66999V4.87363H7.99615C7.69395 4.87363 7.48159 4.96183 7.35907 5.13823C7.23656 5.31463 7.1753 5.57503 7.1753 5.91943V9.46003Z" fill="black"/>
<path d="M9.97181 8.75443C9.97181 8.55283 10.0371 8.38483 10.1678 8.25043C10.2903 8.11603 10.4537 8.04883 10.6579 8.04883H11.4787C11.83 8.04883 12.0668 8.06143 12.1893 8.08663C12.1893 8.07823 12.1893 8.06563 12.1893 8.04883C12.1975 8.03203 12.2016 8.01943 12.2016 8.01103C11.9484 7.82623 11.7442 7.55743 11.589 7.20463C11.442 6.85183 11.3685 6.48643 11.3685 6.10843C11.3685 5.31883 11.5972 4.67623 12.0546 4.18063C12.512 3.68503 13.1368 3.43723 13.9291 3.43723C14.754 3.43723 15.3952 3.69343 15.8525 4.20583C16.3181 4.70983 16.5509 5.38603 16.5509 6.23443C16.5509 6.54523 16.4978 6.86443 16.3916 7.19203C16.2936 7.51123 16.1629 7.77163 15.9996 7.97323C15.9996 7.99003 16.0077 8.01523 16.0241 8.04883H17.2615V9.46003H10.6579C10.4619 9.46003 10.2985 9.39703 10.1678 9.27103C10.0371 9.13663 9.97181 8.96443 9.97181 8.75443ZM13.9536 4.82323C13.5452 4.82323 13.2307 4.95343 13.0102 5.21383C12.7897 5.46583 12.6794 5.77663 12.6794 6.14623C12.6794 6.60823 12.8346 7.00723 13.145 7.34323C13.4635 7.67923 13.8964 7.90183 14.4436 8.01103C14.9827 7.64983 15.2522 7.09123 15.2522 6.33523C15.2522 5.88163 15.1338 5.51623 14.8969 5.23903C14.6682 4.96183 14.3538 4.82323 13.9536 4.82323ZM15.2522 2.46703H14.1373V1.32043H15.2522V2.46703ZM13.7575 2.46703H12.6549V1.32043H13.7575V2.46703Z" fill="black"/>
<path d="M16.5639 8.76703C16.5639 8.59063 16.6292 8.42683 16.7599 8.27563C16.8906 8.12443 17.058 8.04883 17.2622 8.04883C17.5644 8.04883 17.785 7.96063 17.9238 7.78423C18.0627 7.59943 18.1321 7.30123 18.1321 6.88963V4.54603H19.394V6.96523C19.394 7.33483 19.4593 7.60783 19.59 7.78423C19.7289 7.95223 19.9698 8.04043 20.3129 8.04883V9.46003C19.5614 9.46003 19.0673 9.22483 18.8304 8.75443C18.5037 9.22483 17.981 9.46003 17.2622 9.46003C17.0662 9.46003 16.9029 9.39703 16.7722 9.27103C16.6333 9.13663 16.5639 8.96863 16.5639 8.76703ZM20.0801 3.53803H18.9652V2.39143H20.0801V3.53803ZM18.5854 3.53803H17.4828V2.39143H18.5854V3.53803Z" fill="black"/>
<path d="M19.6148 8.76703C19.6148 8.59063 19.6802 8.42683 19.8108 8.27563C19.9415 8.12443 20.1087 8.04883 20.3129 8.04883C20.6151 8.04883 20.8359 7.96063 20.9747 7.78423C21.1136 7.59943 21.183 7.30123 21.183 6.88963V4.54603H22.4449V6.96523C22.4449 7.33483 22.5103 7.60783 22.6409 7.78423C22.7798 7.95223 23.0207 8.04043 23.3638 8.04883V9.46003C22.6124 9.46003 22.1182 9.22483 21.8813 8.75443C21.5546 9.22483 21.0316 9.46003 20.3129 9.46003C20.1168 9.46003 19.9538 9.39703 19.8231 9.27103C19.6842 9.13663 19.6148 8.96863 19.6148 8.76703ZM22.3959 3.53803H21.281V2.39143H22.3959V3.53803Z" fill="black"/>
<path d="M23.0805 9.48524C23.7829 9.48524 24.3057 9.25003 24.6487 8.77963C24.6487 8.77963 23.9504 7.73383 23.9504 6.94003C23.9504 7.69603 23.6604 8.07403 23.0805 8.07403C22.8927 8.07403 22.7334 8.14124 22.6027 8.27564C22.4639 8.41004 22.3944 8.57803 22.3944 8.77963C22.3944 8.98963 22.4598 9.16184 22.5904 9.29624C22.7211 9.42224 22.8845 9.48524 23.0805 9.48524Z" fill="black"/>
<path d="M28.99 7.23478C29.7367 6.80369 29.7367 5.72597 28.99 5.29488L25.5165 3.28946C24.7698 2.85837 23.8365 3.39723 23.8365 4.2594V8.27025C23.8365 9.13243 24.7698 9.67129 25.5165 9.2402L28.99 7.23478Z" fill="#EA3636"/>
</svg>
